<mxfile host="app.diagrams.net" modified="2023-03-09T16:27:16.217Z" agent="5.0 (X11; Linux x86_64) AppleWebKit/537.36 (KHTML, like Gecko) Chrome/108.0.0.0 Safari/537.36" etag="eqIZIDkkXzJdewbFQ09B" version="21.0.6" type="github">
  <diagram name="Página-1" id="3pVQ3GwzRV_Wrgn4C8Db">
    <mxGraphModel dx="1362" dy="807" grid="1" gridSize="10" guides="1" tooltips="1" connect="1" arrows="1" fold="1" page="1" pageScale="1" pageWidth="827" pageHeight="1169" math="0" shadow="0">
      <root>
        <mxCell id="0" />
        <mxCell id="1" parent="0" />
        <mxCell id="zbPyiTxh5-yumL0Ah3kJ-39" value="TRILHA" style="rounded=1;whiteSpace=wrap;html=1;align=center;labelPosition=center;verticalLabelPosition=middle;verticalAlign=bottom;horizontal=1;" vertex="1" parent="1">
          <mxGeometry x="300" y="940" width="240" height="80.5" as="geometry" />
        </mxCell>
        <mxCell id="zbPyiTxh5-yumL0Ah3kJ-38" value="EXPEDIÇÃO" style="rounded=1;whiteSpace=wrap;html=1;align=center;labelPosition=center;verticalLabelPosition=middle;verticalAlign=bottom;horizontal=1;" vertex="1" parent="1">
          <mxGeometry x="300" y="1059" width="260" height="80.5" as="geometry" />
        </mxCell>
        <mxCell id="zbPyiTxh5-yumL0Ah3kJ-16" value="COFRE / FOLHETERIA E CONFERÊNCIA" style="rounded=1;whiteSpace=wrap;html=1;align=center;labelPosition=center;verticalLabelPosition=middle;verticalAlign=bottom;horizontal=1;" vertex="1" parent="1">
          <mxGeometry x="10" y="585" width="790" height="240" as="geometry" />
        </mxCell>
        <mxCell id="zbPyiTxh5-yumL0Ah3kJ-14" value="PCP" style="rounded=1;whiteSpace=wrap;html=1;align=center;labelPosition=center;verticalLabelPosition=middle;verticalAlign=bottom;" vertex="1" parent="1">
          <mxGeometry x="350" y="320" width="450" height="240" as="geometry" />
        </mxCell>
        <mxCell id="zbPyiTxh5-yumL0Ah3kJ-7" value="PROCESSAMENTO AUTOMÁTICO" style="rounded=1;whiteSpace=wrap;html=1;align=center;labelPosition=center;verticalLabelPosition=middle;verticalAlign=bottom;" vertex="1" parent="1">
          <mxGeometry x="50" y="280" width="280" height="170" as="geometry" />
        </mxCell>
        <mxCell id="zbPyiTxh5-yumL0Ah3kJ-3" style="edgeStyle=orthogonalEdgeStyle;rounded=0;orthogonalLoop=1;jettySize=auto;html=1;" edge="1" parent="1" source="zbPyiTxh5-yumL0Ah3kJ-1" target="zbPyiTxh5-yumL0Ah3kJ-2">
          <mxGeometry relative="1" as="geometry" />
        </mxCell>
        <mxCell id="zbPyiTxh5-yumL0Ah3kJ-1" value="PROCESSAMENTO DE ARQUIVOS" style="rounded=1;whiteSpace=wrap;html=1;" vertex="1" parent="1">
          <mxGeometry x="80" y="140" width="120" height="60" as="geometry" />
        </mxCell>
        <mxCell id="zbPyiTxh5-yumL0Ah3kJ-2" value="DIRETÓRIO CPD" style="rounded=0;whiteSpace=wrap;html=1;" vertex="1" parent="1">
          <mxGeometry x="354" y="140" width="120" height="60" as="geometry" />
        </mxCell>
        <mxCell id="zbPyiTxh5-yumL0Ah3kJ-5" style="edgeStyle=orthogonalEdgeStyle;rounded=0;orthogonalLoop=1;jettySize=auto;html=1;entryX=1;entryY=0.5;entryDx=0;entryDy=0;" edge="1" parent="1" source="zbPyiTxh5-yumL0Ah3kJ-4" target="zbPyiTxh5-yumL0Ah3kJ-2">
          <mxGeometry relative="1" as="geometry" />
        </mxCell>
        <mxCell id="zbPyiTxh5-yumL0Ah3kJ-4" value="SCRIPT DE PROCESSAMENTO DE ARQUIVOS" style="rounded=1;whiteSpace=wrap;html=1;fillColor=#d5e8d4;strokeColor=#82b366;" vertex="1" parent="1">
          <mxGeometry x="530" y="216" width="120" height="60" as="geometry" />
        </mxCell>
        <mxCell id="zbPyiTxh5-yumL0Ah3kJ-9" style="edgeStyle=orthogonalEdgeStyle;rounded=0;orthogonalLoop=1;jettySize=auto;html=1;" edge="1" parent="1" source="zbPyiTxh5-yumL0Ah3kJ-6" target="zbPyiTxh5-yumL0Ah3kJ-8">
          <mxGeometry relative="1" as="geometry" />
        </mxCell>
        <mxCell id="zbPyiTxh5-yumL0Ah3kJ-6" value="DIRETÓRIO DATASUL" style="rounded=0;whiteSpace=wrap;html=1;" vertex="1" parent="1">
          <mxGeometry x="354" y="216" width="120" height="60" as="geometry" />
        </mxCell>
        <mxCell id="zbPyiTxh5-yumL0Ah3kJ-15" style="edgeStyle=orthogonalEdgeStyle;rounded=0;orthogonalLoop=1;jettySize=auto;html=1;" edge="1" parent="1" source="zbPyiTxh5-yumL0Ah3kJ-8" target="zbPyiTxh5-yumL0Ah3kJ-10">
          <mxGeometry relative="1" as="geometry" />
        </mxCell>
        <mxCell id="zbPyiTxh5-yumL0Ah3kJ-22" style="edgeStyle=orthogonalEdgeStyle;rounded=0;orthogonalLoop=1;jettySize=auto;html=1;" edge="1" parent="1" source="zbPyiTxh5-yumL0Ah3kJ-8" target="zbPyiTxh5-yumL0Ah3kJ-19">
          <mxGeometry relative="1" as="geometry" />
        </mxCell>
        <mxCell id="zbPyiTxh5-yumL0Ah3kJ-23" value="Saldo OK" style="edgeLabel;html=1;align=center;verticalAlign=middle;resizable=0;points=[];" vertex="1" connectable="0" parent="zbPyiTxh5-yumL0Ah3kJ-22">
          <mxGeometry x="-0.2053" y="-2" relative="1" as="geometry">
            <mxPoint as="offset" />
          </mxGeometry>
        </mxCell>
        <mxCell id="zbPyiTxh5-yumL0Ah3kJ-8" value="IMPORTAÇÃO DO ARQUIVO AUTOMÁTICO&lt;br&gt;VERIFICAÇÃO DE SALDO E ALOCAÇÃO" style="rounded=1;whiteSpace=wrap;html=1;fillColor=#d5e8d4;strokeColor=#82b366;" vertex="1" parent="1">
          <mxGeometry x="170" y="310" width="120" height="100" as="geometry" />
        </mxCell>
        <mxCell id="zbPyiTxh5-yumL0Ah3kJ-10" value="TELA DE RETENÇÃO" style="rounded=1;whiteSpace=wrap;html=1;" vertex="1" parent="1">
          <mxGeometry x="470" y="390" width="120" height="60" as="geometry" />
        </mxCell>
        <mxCell id="zbPyiTxh5-yumL0Ah3kJ-24" style="edgeStyle=orthogonalEdgeStyle;rounded=0;orthogonalLoop=1;jettySize=auto;html=1;entryX=0.75;entryY=0;entryDx=0;entryDy=0;" edge="1" parent="1" source="zbPyiTxh5-yumL0Ah3kJ-11" target="zbPyiTxh5-yumL0Ah3kJ-19">
          <mxGeometry relative="1" as="geometry" />
        </mxCell>
        <mxCell id="zbPyiTxh5-yumL0Ah3kJ-11" value="TELA DE AGILIZAÇÃO" style="rounded=1;whiteSpace=wrap;html=1;" vertex="1" parent="1">
          <mxGeometry x="474" y="470" width="120" height="60" as="geometry" />
        </mxCell>
        <mxCell id="zbPyiTxh5-yumL0Ah3kJ-12" value="INPUT DE TESTE / CONTACTLESS E ON-LINE" style="rounded=1;whiteSpace=wrap;html=1;" vertex="1" parent="1">
          <mxGeometry x="640" y="380" width="150" height="60" as="geometry" />
        </mxCell>
        <mxCell id="zbPyiTxh5-yumL0Ah3kJ-13" value="TELA DE CONSULTA" style="rounded=1;whiteSpace=wrap;html=1;" vertex="1" parent="1">
          <mxGeometry x="650" y="460" width="150" height="60" as="geometry" />
        </mxCell>
        <mxCell id="zbPyiTxh5-yumL0Ah3kJ-28" style="edgeStyle=orthogonalEdgeStyle;rounded=0;orthogonalLoop=1;jettySize=auto;html=1;" edge="1" parent="1" source="zbPyiTxh5-yumL0Ah3kJ-17" target="zbPyiTxh5-yumL0Ah3kJ-21">
          <mxGeometry relative="1" as="geometry">
            <Array as="points">
              <mxPoint x="160" y="755" />
            </Array>
          </mxGeometry>
        </mxCell>
        <mxCell id="zbPyiTxh5-yumL0Ah3kJ-17" value="LISTAGEM SEPARAÇÃO" style="shape=document;whiteSpace=wrap;html=1;boundedLbl=1;fillColor=#dae8fc;strokeColor=#6c8ebf;" vertex="1" parent="1">
          <mxGeometry x="100" y="625" width="120" height="80" as="geometry" />
        </mxCell>
        <mxCell id="zbPyiTxh5-yumL0Ah3kJ-25" value="" style="edgeStyle=orthogonalEdgeStyle;rounded=0;orthogonalLoop=1;jettySize=auto;html=1;" edge="1" parent="1" source="zbPyiTxh5-yumL0Ah3kJ-19" target="zbPyiTxh5-yumL0Ah3kJ-17">
          <mxGeometry relative="1" as="geometry" />
        </mxCell>
        <mxCell id="zbPyiTxh5-yumL0Ah3kJ-27" style="edgeStyle=orthogonalEdgeStyle;rounded=0;orthogonalLoop=1;jettySize=auto;html=1;" edge="1" parent="1" source="zbPyiTxh5-yumL0Ah3kJ-19" target="zbPyiTxh5-yumL0Ah3kJ-21">
          <mxGeometry relative="1" as="geometry">
            <Array as="points">
              <mxPoint x="340" y="735" />
            </Array>
          </mxGeometry>
        </mxCell>
        <mxCell id="zbPyiTxh5-yumL0Ah3kJ-19" value="TELA DE LIBERAÇÃO / ESTORNO" style="rounded=1;whiteSpace=wrap;html=1;fillColor=#dae8fc;strokeColor=#6c8ebf;" vertex="1" parent="1">
          <mxGeometry x="280" y="635" width="120" height="60" as="geometry" />
        </mxCell>
        <mxCell id="zbPyiTxh5-yumL0Ah3kJ-26" style="edgeStyle=orthogonalEdgeStyle;rounded=0;orthogonalLoop=1;jettySize=auto;html=1;" edge="1" parent="1" source="zbPyiTxh5-yumL0Ah3kJ-20" target="zbPyiTxh5-yumL0Ah3kJ-19">
          <mxGeometry relative="1" as="geometry" />
        </mxCell>
        <mxCell id="zbPyiTxh5-yumL0Ah3kJ-20" value="TELA DE PERDA / TROCA" style="rounded=1;whiteSpace=wrap;html=1;fillColor=#dae8fc;strokeColor=#6c8ebf;" vertex="1" parent="1">
          <mxGeometry x="600" y="635" width="120" height="60" as="geometry" />
        </mxCell>
        <mxCell id="zbPyiTxh5-yumL0Ah3kJ-33" style="edgeStyle=orthogonalEdgeStyle;rounded=0;orthogonalLoop=1;jettySize=auto;html=1;" edge="1" parent="1" source="zbPyiTxh5-yumL0Ah3kJ-21" target="zbPyiTxh5-yumL0Ah3kJ-29">
          <mxGeometry relative="1" as="geometry">
            <Array as="points">
              <mxPoint x="490" y="890" />
              <mxPoint x="150" y="890" />
            </Array>
          </mxGeometry>
        </mxCell>
        <mxCell id="zbPyiTxh5-yumL0Ah3kJ-34" value="cartão personalizado" style="edgeLabel;html=1;align=center;verticalAlign=middle;resizable=0;points=[];" vertex="1" connectable="0" parent="zbPyiTxh5-yumL0Ah3kJ-33">
          <mxGeometry x="0.1802" y="3" relative="1" as="geometry">
            <mxPoint as="offset" />
          </mxGeometry>
        </mxCell>
        <mxCell id="zbPyiTxh5-yumL0Ah3kJ-55" style="edgeStyle=orthogonalEdgeStyle;rounded=0;orthogonalLoop=1;jettySize=auto;html=1;" edge="1" parent="1" source="zbPyiTxh5-yumL0Ah3kJ-21" target="zbPyiTxh5-yumL0Ah3kJ-42">
          <mxGeometry relative="1" as="geometry">
            <Array as="points">
              <mxPoint x="640" y="745" />
            </Array>
          </mxGeometry>
        </mxCell>
        <mxCell id="zbPyiTxh5-yumL0Ah3kJ-56" value="Cartão" style="edgeLabel;html=1;align=center;verticalAlign=middle;resizable=0;points=[];" vertex="1" connectable="0" parent="zbPyiTxh5-yumL0Ah3kJ-55">
          <mxGeometry x="-0.4146" y="3" relative="1" as="geometry">
            <mxPoint as="offset" />
          </mxGeometry>
        </mxCell>
        <mxCell id="zbPyiTxh5-yumL0Ah3kJ-21" value="CONFERÊNCIA" style="rounded=1;whiteSpace=wrap;html=1;fillColor=#dae8fc;strokeColor=#6c8ebf;" vertex="1" parent="1">
          <mxGeometry x="430" y="715" width="120" height="60" as="geometry" />
        </mxCell>
        <mxCell id="zbPyiTxh5-yumL0Ah3kJ-40" style="edgeStyle=orthogonalEdgeStyle;rounded=0;orthogonalLoop=1;jettySize=auto;html=1;" edge="1" parent="1" source="zbPyiTxh5-yumL0Ah3kJ-29" target="zbPyiTxh5-yumL0Ah3kJ-35">
          <mxGeometry relative="1" as="geometry">
            <Array as="points">
              <mxPoint x="280" y="980" />
              <mxPoint x="280" y="980" />
            </Array>
          </mxGeometry>
        </mxCell>
        <mxCell id="zbPyiTxh5-yumL0Ah3kJ-29" value="REPORTES - BATIMENTO FULL" style="rounded=1;whiteSpace=wrap;html=1;align=center;labelPosition=center;verticalLabelPosition=middle;verticalAlign=bottom;horizontal=1;" vertex="1" parent="1">
          <mxGeometry x="30" y="940" width="240" height="240" as="geometry" />
        </mxCell>
        <mxCell id="zbPyiTxh5-yumL0Ah3kJ-30" value="MANUSEIO" style="rounded=1;whiteSpace=wrap;html=1;" vertex="1" parent="1">
          <mxGeometry x="50" y="970" width="120" height="40" as="geometry" />
        </mxCell>
        <mxCell id="zbPyiTxh5-yumL0Ah3kJ-31" value="CQ-AR" style="rounded=1;whiteSpace=wrap;html=1;" vertex="1" parent="1">
          <mxGeometry x="50" y="1020" width="120" height="40" as="geometry" />
        </mxCell>
        <mxCell id="zbPyiTxh5-yumL0Ah3kJ-37" style="edgeStyle=orthogonalEdgeStyle;rounded=0;orthogonalLoop=1;jettySize=auto;html=1;" edge="1" parent="1" source="zbPyiTxh5-yumL0Ah3kJ-32" target="zbPyiTxh5-yumL0Ah3kJ-36">
          <mxGeometry relative="1" as="geometry" />
        </mxCell>
        <mxCell id="zbPyiTxh5-yumL0Ah3kJ-32" value="EXPEDIÇÃO" style="rounded=1;whiteSpace=wrap;html=1;" vertex="1" parent="1">
          <mxGeometry x="50" y="1072" width="120" height="40" as="geometry" />
        </mxCell>
        <mxCell id="zbPyiTxh5-yumL0Ah3kJ-35" value="SIMULAÇÃO DE PRODUÇÃO" style="rounded=1;whiteSpace=wrap;html=1;" vertex="1" parent="1">
          <mxGeometry x="330" y="960.25" width="190" height="40" as="geometry" />
        </mxCell>
        <mxCell id="zbPyiTxh5-yumL0Ah3kJ-36" value="TELA DE LACRE / POSTAGEM" style="rounded=1;whiteSpace=wrap;html=1;fillColor=#dae8fc;strokeColor=#6c8ebf;" vertex="1" parent="1">
          <mxGeometry x="335" y="1072" width="190" height="40" as="geometry" />
        </mxCell>
        <mxCell id="zbPyiTxh5-yumL0Ah3kJ-57" style="edgeStyle=orthogonalEdgeStyle;rounded=0;orthogonalLoop=1;jettySize=auto;html=1;entryX=0.675;entryY=1.067;entryDx=0;entryDy=0;entryPerimeter=0;" edge="1" parent="1" source="zbPyiTxh5-yumL0Ah3kJ-42" target="zbPyiTxh5-yumL0Ah3kJ-21">
          <mxGeometry relative="1" as="geometry">
            <Array as="points">
              <mxPoint x="511" y="930" />
            </Array>
          </mxGeometry>
        </mxCell>
        <mxCell id="zbPyiTxh5-yumL0Ah3kJ-58" value="Cartão personalizado" style="edgeLabel;html=1;align=center;verticalAlign=middle;resizable=0;points=[];" vertex="1" connectable="0" parent="zbPyiTxh5-yumL0Ah3kJ-57">
          <mxGeometry x="-0.6444" relative="1" as="geometry">
            <mxPoint x="-6" y="-10" as="offset" />
          </mxGeometry>
        </mxCell>
        <mxCell id="zbPyiTxh5-yumL0Ah3kJ-42" value="PERSONALIZAÇÃO" style="rounded=1;whiteSpace=wrap;html=1;align=center;labelPosition=center;verticalLabelPosition=middle;verticalAlign=bottom;horizontal=1;" vertex="1" parent="1">
          <mxGeometry x="610" y="920" width="290" height="240" as="geometry" />
        </mxCell>
        <mxCell id="zbPyiTxh5-yumL0Ah3kJ-52" style="edgeStyle=orthogonalEdgeStyle;rounded=0;orthogonalLoop=1;jettySize=auto;html=1;" edge="1" parent="1" source="zbPyiTxh5-yumL0Ah3kJ-43" target="zbPyiTxh5-yumL0Ah3kJ-46">
          <mxGeometry relative="1" as="geometry" />
        </mxCell>
        <mxCell id="zbPyiTxh5-yumL0Ah3kJ-54" style="edgeStyle=orthogonalEdgeStyle;rounded=0;orthogonalLoop=1;jettySize=auto;html=1;entryX=1;entryY=0.388;entryDx=0;entryDy=0;entryPerimeter=0;" edge="1" parent="1" source="zbPyiTxh5-yumL0Ah3kJ-43" target="zbPyiTxh5-yumL0Ah3kJ-39">
          <mxGeometry relative="1" as="geometry" />
        </mxCell>
        <mxCell id="zbPyiTxh5-yumL0Ah3kJ-43" value="REPORTE" style="rounded=1;whiteSpace=wrap;html=1;" vertex="1" parent="1">
          <mxGeometry x="620" y="951.25" width="120" height="40" as="geometry" />
        </mxCell>
        <mxCell id="zbPyiTxh5-yumL0Ah3kJ-51" style="edgeStyle=orthogonalEdgeStyle;rounded=0;orthogonalLoop=1;jettySize=auto;html=1;" edge="1" parent="1" source="zbPyiTxh5-yumL0Ah3kJ-46" target="zbPyiTxh5-yumL0Ah3kJ-47">
          <mxGeometry relative="1" as="geometry" />
        </mxCell>
        <mxCell id="zbPyiTxh5-yumL0Ah3kJ-53" style="edgeStyle=orthogonalEdgeStyle;rounded=0;orthogonalLoop=1;jettySize=auto;html=1;" edge="1" parent="1" source="zbPyiTxh5-yumL0Ah3kJ-46" target="zbPyiTxh5-yumL0Ah3kJ-20">
          <mxGeometry relative="1" as="geometry">
            <Array as="points">
              <mxPoint x="830" y="800" />
              <mxPoint x="660" y="800" />
            </Array>
          </mxGeometry>
        </mxCell>
        <mxCell id="zbPyiTxh5-yumL0Ah3kJ-46" value="TELA DE PERDA/TROCA" style="rounded=1;whiteSpace=wrap;html=1;" vertex="1" parent="1">
          <mxGeometry x="770" y="951.25" width="120" height="40" as="geometry" />
        </mxCell>
        <mxCell id="zbPyiTxh5-yumL0Ah3kJ-47" value="DOCUMENTO PARA TROCA DA PERDA (DRH)" style="shape=document;whiteSpace=wrap;html=1;boundedLbl=1;" vertex="1" parent="1">
          <mxGeometry x="770" y="1032" width="120" height="80" as="geometry" />
        </mxCell>
      </root>
    </mxGraphModel>
  </diagram>
</mxfile>
